<?xml version="1.0" encoding="utf-8"?>
<!-- Generator: Adobe Illustrator 19.0.1, SVG Export Plug-In . SVG Version: 6.00 Build 0)  -->
<svg version="1.1" id="Layer_1" xmlns="http://www.w3.org/2000/svg" xmlns:xlink="http://www.w3.org/1999/xlink" x="0px" y="0px"
	 viewBox="0 0 35.5 31.3" style="enable-background:new 0 0 35.5 31.3;" xml:space="preserve">
<style type="text/css">
	.st0{fill:none;stroke:#fff;stroke-width:1.9199;stroke-linecap:round;stroke-linejoin:round;stroke-miterlimit:22.9256;}
</style>
<path class="st0" d="M15.9,23.9c1.6,0,2.8,1.3,2.8,2.8c0,1.6-1.3,2.8-2.8,2.8c-1.6,0-2.8-1.3-2.8-2.8C13.1,25.2,14.3,23.9,15.9,23.9
	L15.9,23.9z"/>
<path class="st0" d="M26.8,23.9c1.6,0,2.8,1.3,2.8,2.8c0,1.6-1.3,2.8-2.8,2.8c-1.6,0-2.8-1.3-2.8-2.8C24,25.2,25.2,23.9,26.8,23.9
	L26.8,23.9z"/>
<polyline class="st0" points="2,1.5 7.8,1.5 13.1,18.9 31,18.9 "/>
<line class="st0" x1="12.1" y1="14.4" x2="32.9" y2="14.4"/>
<line class="st0" x1="10.7" y1="9.8" x2="34" y2="9.8"/>
</svg>
