<?xml version="1.0" encoding="utf-8"?>
<!-- Generator: Adobe Illustrator 19.0.1, SVG Export Plug-In . SVG Version: 6.00 Build 0)  -->
<svg version="1.1" id="Capa_1" xmlns="http://www.w3.org/2000/svg" xmlns:xlink="http://www.w3.org/1999/xlink" x="0px" y="0px"
	 viewBox="0 0 72 62" style="enable-background:new 0 0 76 62;" xml:space="preserve">
<style type="text/css">
	.st0{fill:none;stroke:#d11147;stroke-width:2;stroke-linecap:round;stroke-linejoin:round;stroke-miterlimit:10;}
</style>
<g id="air_shipment_x0A_">
	<g id="package_5_">
		<polyline class="st0" points="32,31 32,37 34,36 36,37 38,36 40,37 40,31 		"/>
		<polyline class="st0" points="41,31 50,31 50,56 22,56 22,31 32,31 		"/>
		<polyline class="st0" points="22,31 26,27 47,27 50,31 		"/>
		<line class="st0" x1="33" y1="27" x2="32" y2="31"/>
		<line class="st0" x1="40" y1="31" x2="39" y2="27"/>
	</g>
	<g>
		<g>
			<path class="st0" d="M56,21.9l5-3.1c7-4.1,6.6-13.3,5.1-12.5L45.8,18c-1.2,0.7-2.1,1.6-2.8,2.7L39,27"/>
			<path class="st0" d="M56,29.6l4-2c7-4.1,6.6-13.4,5.1-12.5"/>
			<path class="st0" d="M64,24.5c1.4-0.9,2,7.1-5,11.2l-3.5,1.9c-3.1,1.6-5.2,4.7-5.5,8.1"/>
		</g>
		<g>
			<path class="st0" d="M16,21.9l-5-3.1C4,14.8,4.4,5.5,5.9,6.4L26.2,18c1.2,0.7,2.1,1.6,2.8,2.7L33,27"/>
			<path class="st0" d="M16,29.6l-4-2c-7-4.1-6.6-13.4-5.1-12.5"/>
			<path class="st0" d="M8,24.5c-1.4-0.9-2,7.1,5,11.2l3.5,1.9c3.1,1.6,5.2,4.7,5.5,8.1"/>
		</g>
	</g>
</g>
</svg>
