<?xml version="1.0" encoding="utf-8"?>
<!-- Generator: Adobe Illustrator 19.0.1, SVG Export Plug-In . SVG Version: 6.00 Build 0)  -->
<svg version="1.1" id="Capa_1" xmlns="http://www.w3.org/2000/svg" xmlns:xlink="http://www.w3.org/1999/xlink" x="0px" y="0px"
	 viewBox="0 0 40.2 26.4" style="enable-background:new 0 0 40.2 26.4;" xml:space="preserve">
<style type="text/css">
	.st0{fill:#e4154f;}
</style>
<g id="delivery_florist">
	<g>
		<g>
			<path class="st0" d="M40.2,12.6L40.2,12.6L40.2,12.6c0-3.1-1.3-6.2-3.8-8.6c-2.4-2.4-5.6-4-8.2-4H1.9C0.8,0,0,0.8,0,1.9v21.4
				c0,1,0.8,1.9,1.9,1.9h1.8c-0.1-0.4-0.2-0.8-0.2-1.3H1.9c-0.3,0-0.6-0.3-0.6-0.6V1.9c0-0.3,0.3-0.6,0.7-0.6h25.7v11.3
				c0,0.3,0.3,0.6,0.6,0.6h10.7c0,0.4,0,0.8,0,1.3h-0.6c-0.4,0-0.6,0.3-0.6,0.6c0,0.3,0.3,0.6,0.6,0.6h0.6c0,3.2,0,7.5,0,7.5
				c0,0.3-0.3,0.6-0.6,0.6h-2.2c0,0.4-0.1,0.9-0.2,1.3h2.4c1,0,1.9-0.8,1.9-1.9c0,0,0-4.9,0-8.1c0,0,0,0,0,0c0,0,0,0,0,0
				C40.2,14,40.2,13.1,40.2,12.6L40.2,12.6z M28.9,1.3c2.1,0.2,4.7,1.6,6.7,3.5c2,2.1,3.2,4.6,3.4,7.1h-10V1.3z"/>
		</g>
		<g>
			<path class="st0" d="M11,23.9c0,0.4-0.1,0.9-0.2,1.3h18c-0.1-0.4-0.2-0.8-0.2-1.3H11z"/>
		</g>
		<g>
			<path class="st0" d="M7.2,21.4c-1.4,0-2.5,1.1-2.5,2.5c0,1.4,1.1,2.5,2.5,2.5c1.4,0,2.5-1.1,2.5-2.5C9.7,22.5,8.6,21.4,7.2,21.4z
				 M7.2,25.1c-0.7,0-1.3-0.6-1.3-1.3c0-0.7,0.6-1.3,1.3-1.3c0.7,0,1.3,0.6,1.3,1.3C8.5,24.6,7.9,25.1,7.2,25.1z"/>
		</g>
		<g>
			<path class="st0" d="M32.3,21.4c-1.4,0-2.5,1.1-2.5,2.5c0,1.4,1.1,2.5,2.5,2.5c1.4,0,2.5-1.1,2.5-2.5
				C34.8,22.5,33.7,21.4,32.3,21.4z M32.3,25.1c-0.7,0-1.3-0.6-1.3-1.3c0-0.7,0.6-1.3,1.3-1.3c0.7,0,1.3,0.6,1.3,1.3
				C33.6,24.6,33,25.1,32.3,25.1z"/>
		</g>
		<g>
			<path class="st0" d="M11.6,14c0.3-0.7,0.4-1.5,0.1-2.3c0.1,0,0.2,0,0.3,0c1.7,0,2.7-1,2.8-2c0-0.5-0.2-1-0.5-1.4
				c-0.5-0.6-1.3-0.9-2.3-0.9c0.3-0.8,0.4-1.6,0.1-2.3c-0.2-0.6-0.6-1-1-1.2c-1-0.4-2.4,0.3-3.1,2C7.4,5.3,6.7,5,5.9,5
				C5.3,5,4.8,5.2,4.4,5.6C4.1,6,4,6.6,4.1,7.2c0.1,0.7,0.6,1.4,1.3,2c-0.7,0.5-1.3,1.1-1.5,1.8c-0.2,0.6-0.1,1.2,0.1,1.6
				c0.3,0.5,1,0.8,1.7,0.8c0.6,0,1.3-0.2,1.9-0.6c0.4,1.5,1.4,2.3,2.4,2.3c0.1,0,0.3,0,0.4,0C10.9,14.9,11.4,14.5,11.6,14z
				 M11.4,8.7c0.1,0,0.2,0,0.4,0c0.6,0,1.2,0.2,1.6,0.6c0.2,0.2,0.2,0.3,0.2,0.4c0,0.3-0.6,0.8-1.5,0.8c-0.2,0-0.5,0-0.7-0.1
				c-0.1,0-0.2-0.1-0.3-0.2c0.2-0.4,0.2-0.9,0.1-1.4C11.2,8.7,11.3,8.7,11.4,8.7z M8.3,8.8C8.4,8.6,8.7,8.4,9,8.4
				c0.2,0,0.4,0.1,0.6,0.2C10,9,10,9.6,9.7,10c-0.3,0.4-0.9,0.4-1.3,0.1C8.2,9.9,8.1,9.7,8,9.5C8,9.2,8.1,9,8.3,8.8z M9.1,6.8
				c0.2-1.2,1-1.7,1.5-1.7c0,0,0,0,0,0c0.1,0,0.2,0.2,0.3,0.4C11.1,6,11,6.7,10.6,7.4c-0.1,0.1-0.2,0.2-0.3,0.3
				C10,7.4,9.6,7.2,9.1,7.2C9.1,7.1,9,6.9,9.1,6.8z M5.3,7c0-0.3,0-0.5,0.1-0.5c0.1-0.1,0.2-0.2,0.5-0.2c0.6,0,1.2,0.3,1.7,0.9
				c0.1,0.1,0.1,0.2,0.2,0.4C7.6,7.7,7.4,7.8,7.3,8C7.1,8.1,7,8.3,7,8.5c-0.1,0-0.3,0-0.4-0.1C5.9,8.1,5.4,7.5,5.3,7z M5.8,12.1
				c-0.4,0-0.6-0.1-0.7-0.2c-0.1-0.1-0.1-0.3,0-0.5c0.2-0.5,0.7-1,1.4-1.3c0.1,0,0.2-0.1,0.3-0.1c0,0,0.1,0,0.1,0
				C7,10.4,7.2,10.8,7.6,11c0,0.1-0.1,0.2-0.2,0.3C6.7,12,6.1,12.1,5.8,12.1z M10.5,13.4c-0.1,0.2-0.3,0.4-0.4,0.4
				c-0.3,0.1-1.2-0.5-1.4-1.9c0-0.1,0-0.2,0.1-0.4c0,0,0.1,0,0.1,0c0.4,0,0.8-0.1,1.2-0.3c0.1,0.1,0.2,0.2,0.2,0.3
				C10.7,12.2,10.7,12.9,10.5,13.4z"/>
		</g>
		<g>
			<path class="st0" d="M14.4,17.6c0.1,0.8,1,1.4,2.1,1.4c0.1,0,0.3,0,0.4,0c0,0.6,0.1,1.2,0.4,1.6c0.3,0.4,0.7,0.7,1.1,0.8
				c0,0,0.1,0,0.2,0c0.4,0,0.8-0.2,1.2-0.6c0.3-0.4,0.6-0.8,0.7-1.4c0.4,0.1,0.7,0.2,1.1,0.2c0.8,0,1.4-0.3,1.6-0.9
				c0.2-0.4,0.2-0.9,0-1.3c-0.2-0.5-0.6-0.9-1.2-1.2c0.4-0.5,0.6-1,0.7-1.5c0-0.5-0.1-1-0.4-1.3c-0.3-0.3-0.6-0.4-1.1-0.4
				c-0.6,0-1.2,0.3-1.7,0.8c-0.7-1.2-1.9-1.5-2.6-1.1c-0.4,0.2-0.7,0.6-0.8,1.1c-0.1,0.5,0,1.1,0.2,1.7c-0.6,0.1-1.1,0.4-1.4,0.9
				C14.5,16.7,14.3,17.2,14.4,17.6z M18.4,16.9c0-0.1,0-0.3,0.1-0.4c0.1-0.1,0.2-0.2,0.5-0.2c0.3,0,0.5,0.2,0.6,0.5
				c0,0.1,0,0.3-0.1,0.4c-0.1,0.1-0.2,0.2-0.4,0.2C18.8,17.4,18.5,17.2,18.4,16.9z M18.8,19.9c-0.1,0.1-0.2,0.2-0.3,0.2h0
				c0,0-0.1,0-0.2-0.2c-0.1-0.1-0.3-0.6-0.1-1.3c0,0,0.1-0.1,0.1-0.1c0.2,0.1,0.4,0.1,0.7,0.1c0.1,0,0.1,0,0.2,0c0,0,0,0.1,0,0.1
				C19.2,19.4,18.9,19.8,18.8,19.9z M21.9,17.9c0.1,0.1,0.1,0.2,0,0.3c0,0-0.2,0.2-0.5,0.2c-0.3,0-0.7-0.1-1-0.4c0,0,0-0.1-0.1-0.1
				c0,0,0.1-0.1,0.1-0.1c0.1-0.2,0.2-0.4,0.3-0.7c0,0,0,0,0,0c0,0,0,0,0.1,0C21.6,17.4,21.9,17.8,21.9,17.9z M21.1,14.3
				c0.1,0,0.2,0,0.2,0c0,0,0.1,0.1,0.1,0.3c0,0.1-0.1,0.7-0.7,1.1c0,0-0.1,0-0.1,0c-0.2-0.3-0.4-0.5-0.7-0.6c0,0,0-0.1,0-0.1
				C20.3,14.5,20.8,14.3,21.1,14.3z M17.2,14.1c0-0.2,0.1-0.2,0.2-0.3c0.3,0,0.8,0.3,1.1,1.1c0,0,0,0.1,0,0.1
				c-0.3,0.1-0.5,0.2-0.7,0.4c0,0-0.1,0-0.1-0.1C17.1,14.7,17.2,14.2,17.2,14.1z M15.8,17.1c0.1-0.1,0.5-0.5,1.3-0.5
				c0,0,0.1,0,0.1,0c0,0.1,0,0.3,0,0.4c0,0.1,0.1,0.3,0.1,0.4c0,0-0.1,0.1-0.1,0.1c-0.2,0.1-0.5,0.1-0.7,0.1c-0.5,0-0.8-0.2-0.8-0.3
				C15.6,17.4,15.7,17.3,15.8,17.1z"/>
		</g>
	</g>
</g>
</svg>
