<?xml version="1.0" encoding="utf-8"?>
<!-- Generator: Adobe Illustrator 19.0.1, SVG Export Plug-In . SVG Version: 6.00 Build 0)  -->
<svg version="1.1" id="Capa_1" xmlns="http://www.w3.org/2000/svg" xmlns:xlink="http://www.w3.org/1999/xlink" x="0px" y="0px"
	 viewBox="0 0 40.2 40.1" style="enable-background:new 0 0 40.2 40.1;" xml:space="preserve">
<style type="text/css">
	.st0{fill:#d62759;}
</style>
<g id="flowers">
	<g>
		<path class="st0" d="M18.7,5.8c0.2-0.2,0.2-0.4,0.1-0.7c-0.1-0.2-0.3-0.4-0.6-0.4c-0.6,0-1.1,0-1.6,0.1c0.1-1.6,0.3-2,0.3-1.9
			c0.2-0.2,0.2-0.4,0.1-0.7c-0.1-0.2-0.3-0.4-0.6-0.4c-1.6,0-3,0.2-4.4,0.5C11.5,1,10.2,0,9.4,0C8.7,0,7.4,1,6.8,2.3
			C5.4,1.9,4,1.8,2.4,1.8c-0.3,0-0.5,0.1-0.6,0.3C1.7,2.3,1.7,2.6,1.9,2.7c0,0,0.2,0.4,0.3,2c-0.5,0-1-0.1-1.6-0.1
			C0.4,4.7,0.2,4.8,0.1,5C0,5.3,0,5.5,0.2,5.7c0,0.1,0.9,1.8-0.1,13c-0.2,2.5,0.5,4.6,2.1,6.4c0.9,1,2.1,1.8,3.5,2.3
			c-0.2,0.1-0.4,0.2-0.6,0.3c-1.5,1.2-1.5,4.7-1.5,5.1c0,0.3,0.2,0.5,0.4,0.6c0.1,0,0.2,0,0.2,0c0.2,0,0.3-0.1,0.4-0.2
			c0.7-0.6,1.3-0.8,2.1-0.8c0.2,0,0.3,0,0.5,0c0.6,0,1.2,0,1.7-0.3v7.3c0,0.3,0.3,0.6,0.6,0.6c0.3,0,0.6-0.3,0.6-0.6v-7.3
			c0.5,0.3,1.1,0.3,1.7,0.3c0.1,0,0.3,0,0.5,0c0.8,0,1.4,0.1,2.1,0.8c0.1,0.1,0.3,0.2,0.4,0.2c0.1,0,0.2,0,0.2,0
			c0.2-0.1,0.4-0.3,0.4-0.6c0-0.4,0-3.9-1.5-5.1c-0.2-0.1-0.4-0.2-0.6-0.3c1.3-0.5,2.5-1.3,3.5-2.3c1.6-1.7,2.3-3.9,2.1-6.4
			C17.8,7.5,18.7,5.8,18.7,5.8z M15.4,4.9C13,5.2,11,6,9.4,7C8.8,6.6,8.1,6.2,7.3,5.9c2.2-1.8,5-2.8,8.3-2.9
			C15.5,3.6,15.4,4.3,15.4,4.9z M9.4,1.3c0.2,0,1,0.6,1.4,1.3c-0.5,0.2-1,0.3-1.4,0.5C9,2.9,8.5,2.7,8,2.6C8.5,1.8,9.2,1.3,9.4,1.3z
			 M3.3,3C5,3.1,6.6,3.4,8,3.9c-0.7,0.4-1.4,1-2.1,1.5C5.2,5.2,4.3,5,3.5,4.9C3.5,4.2,3.4,3.6,3.3,3z M1.3,18.8
			C2,10.9,1.9,7.5,1.5,6c2.6,0.1,4.8,0.7,6.8,1.8C4.1,11.1,3,16.2,3,18.8c0,2.5,0.6,5,1.8,6.8c-0.6-0.4-1.2-0.8-1.7-1.3
			C1.8,22.8,1.2,20.9,1.3,18.8z M8.3,31.1c-0.2,0.2-0.6,0.2-1.1,0.2c-0.7,0-1.5-0.1-2.3,0.3c0.1-1.2,0.4-2.4,1-2.9
			c0.4-0.3,0.9-0.5,1.3-0.5c0.4,0,0.8,0.2,1.1,0.5c0.3,0.3,0.5,0.7,0.5,1.2v0C8.8,30.3,8.6,30.8,8.3,31.1z M14,31.6
			c-0.7-0.3-1.3-0.3-1.8-0.3c-0.2,0-0.3,0-0.5,0c-0.6,0-1,0-1.1-0.2c-0.3-0.3-0.5-0.8-0.5-1.2c0,0,0,0,0,0v0c0-0.5,0.2-0.9,0.5-1.2
			c0.6-0.6,1.7-0.6,2.5,0C13.6,29.1,13.9,30.4,14,31.6z M15.8,24.2c-1.5,1.7-4,2.7-6.4,2.7c-3.6,0-5.2-4.1-5.2-8.2
			C4.2,15.3,6.6,6.4,17.4,6c-0.3,1.5-0.5,5,0.2,12.9C17.7,20.9,17.1,22.8,15.8,24.2z"/>
	</g>
	<g>
		<path class="st0" d="M40,21.5c-0.2-0.2-0.5-0.2-0.8-0.1c-0.2,0.1-4.4,2.5-7.1,5.8c-0.6,0.7-1,1.6-1.4,2.6V20
			c3.5-0.3,6.3-3.3,6.3-6.9V1.9c0-0.2-0.1-0.4-0.3-0.5c-0.2-0.1-0.4-0.1-0.6,0c-0.1,0-0.8,0.4-1.7,1.1C34.2,0.9,33.3,0,32,0
			c-0.7,0-1.4,0.5-1.9,1c-0.5-0.4-1.2-1-1.9-1c-1.2,0-2.1,0.9-2.4,2.4c-0.9-0.7-1.6-1-1.7-1.1c-0.2-0.1-0.4-0.1-0.6,0
			c-0.2,0.1-0.3,0.3-0.3,0.5v11.2c0,3.6,2.8,6.5,6.3,6.9v16.9l-7-13.9c-0.1-0.3-0.5-0.4-0.8-0.3c-0.3,0.1-0.5,0.4-0.4,0.7
			c0.1,0.4,1.4,8.9,3.2,12.7c1.1,2.5,3.3,4.1,5.6,4.1c0.2,0,0.3-0.1,0.4-0.2c0,0,0,0,0.1-0.1c0,0,0.1,0,0.1-0.1
			c0.1-0.1,0.1-0.2,0.1-0.3c0,0,0,0,0,0v-1.8l9.3-15.5C40.2,22,40.2,21.7,40,21.5z M35.8,13.1c0,2.9-2.2,5.3-5,5.6v-5.6
			c0-6.1,3.4-9,5-10.1V13.1z M28.3,1.3c0.4,0,1,0.6,1.4,1c0.2,0.3,0.7,0.3,1,0c0.3-0.4,1-1,1.4-1c0.9,0,1.3,1.1,1.3,2.1c0,0,0,0,0,0
			c-1.2,1.2-2.4,2.9-3.1,5.3c-0.7-2.4-2-4.1-3.1-5.3c0,0,0,0,0,0C27,2.4,27.3,1.3,28.3,1.3z M24.5,13.1V3c1.7,1.1,5,4.1,5,10.1v5.6
			C26.7,18.4,24.5,16,24.5,13.1z M25.7,35.5c-0.9-2-1.7-5.3-2.3-8L29,38.7C27.7,38.3,26.4,37.1,25.7,35.5z M30.9,35
			c0.2-2.2,0.8-5.3,2.2-7.1c1.3-1.7,3.1-3.1,4.5-4.1L30.9,35z"/>
	</g>
</g>
</svg>
