<?xml version="1.0" encoding="utf-8"?>
<!-- Generator: Adobe Illustrator 19.0.1, SVG Export Plug-In . SVG Version: 6.00 Build 0)  -->
<svg version="1.1" id="Elements" xmlns="http://www.w3.org/2000/svg" xmlns:xlink="http://www.w3.org/1999/xlink" x="0px" y="0px"
	 viewBox="0 0 126.3 136" style="enable-background:new 0 0 126.3 136;" xml:space="preserve">
<style type="text/css">
	.st0{fill:none;stroke:#fff;stroke-width:2.88;stroke-linecap:round;stroke-linejoin:round;stroke-miterlimit:10;}
</style>
<g id="New_Symbol_14_5_">
	<g>
		<g>
			<path class="st0" d="M68.9,2c0,0,5.2,14.9-10.4,20.5C53.8,6.6,68.9,2,68.9,2z"/>
			<path class="st0" d="M80.5,29.1c0,0-13.7,7.7-22-6.6C73.3,15.1,80.5,29.1,80.5,29.1z"/>
			<path class="st0" d="M58.5,22.5c-1.7,2.2-2.8,4.3-3.4,6.3c-3,9.8,5.6,16.5,5.6,16.5S67.9,37,63,27.9"/>
			<path class="st0" d="M50.1,22L50.1,22C41,23.7,38.3,33.3,38.3,33.3s10.3,3.4,16.9-4.5c0,0,0,0,0,0"/>
			<path class="st0" d="M39.7,9.3c0,0,15.5-3.1,18.8,13.1C42.2,24.9,39.7,9.3,39.7,9.3z"/>
		</g>
		<g>
			<path class="st0" d="M73.4,35.6c0,0,15.9,4.7,11,21.4C68,51.2,73.4,35.6,73.4,35.6z"/>
			<path class="st0" d="M103.6,42.5c0,0-1.9,16.4-19.2,14.6C87.3,39.9,103.6,42.5,103.6,42.5z"/>
			<path class="st0" d="M84.4,57c0.8,2.8,1.9,5,3.3,6.8c6.5,8.5,17.5,5.5,17.5,5.5s-2.6-11.2-13.4-12.7"/>
			<path class="st0" d="M78.8,63.9L78.8,63.9c-4.1,8.8,2.3,17,2.3,17s9.3-6.7,6.6-17.1c0,0,0,0,0,0"/>
			<path class="st0" d="M61.6,64.9c0,0,6.9-15,22.8-7.9C76.4,72.5,61.6,64.9,61.6,64.9z"/>
		</g>
		<g>
			<path class="st0" d="M37.4,39c0,0,13.1,7.2,5.7,21C29.7,51.8,37.4,39,37.4,39z"/>
			<path class="st0" d="M62.8,50.7c0,0-4.8,14.2-19.7,9.3C48.8,45.4,62.8,50.7,62.8,50.7z"/>
			<path class="st0" d="M43.1,60c0.2,2.6,0.8,4.8,1.6,6.6c4.1,8.8,14.4,8.1,14.4,8.1S58.9,64.3,49.8,61"/>
			<path class="st0" d="M36.8,65L36.8,65c-5.3,7-1.1,15.4-1.1,15.4s9.4-4.2,9-13.9c0,0,0,0,0,0"/>
			<path class="st0" d="M21.5,62.7c0,0,8.9-12,21.6-2.7C33.1,72.1,21.5,62.7,21.5,62.7z"/>
		</g>
		<path class="st0" d="M75.8,17.6c0,0,6.8-10.6,19.8-11.8c0,0,4.4,18.4-14,28.2"/>
		<path class="st0" d="M83,22c0,0,6-2.9,12.5-16.2"/>
		<path class="st0" d="M106.4,38.9c0,0,7.8-3.6,9-16.6c0,0-10-3.4-18,2.3"/>
		<path class="st0" d="M115.3,23.8c-7.5,2.9-8.6,3.1-12.5,5.7"/>
		<path class="st0" d="M31.8,39c-1.2-2.6-9.4-11-26.2-8.6c0,0,0.5,19.9,17.6,23.2"/>
		<path class="st0" d="M30.5,49.9c0,0-7.8-15.9-24.8-19.5"/>
		<line class="st0" x1="105.6" y1="53.9" x2="105.6" y2="53.8"/>
		<path class="st0" d="M114.3,64.9c-2.4,2-4.9,4.1-5.5,6.9c-0.5,2.5,0.6,5.1,1.8,7.9c0.4,1,1.1,2.7,1.4,3.8
			c-0.9-0.2-2.1-0.5-2.9-0.7c-2.1-0.6-4.4-1.2-6.5-1.2c-1.3,0-2.5,0.2-3.6,0.7c-2.6,1.2-3.7,4.2-4.8,7.3c-0.5,1.3-1.3,3.6-2,4.4
			c-0.8-0.4-2.1-1.6-3-2.3c-2.5-2.1-5.4-4.5-8.6-4.5c-0.3,0-0.5,0-0.8,0.1c-3.1,0.4-5.1,3.3-7,6.2c-0.8,1.1-2.1,3.1-2.9,3.7
			c-0.7-0.5-2-2-2.7-2.9c-2.3-2.7-5-5.8-8.6-5.8c-3.5,0-6.1,3.1-8.4,5.8c-0.7,0.8-1.7,2.1-2.4,2.7c-0.8-0.8-1.8-2.6-2.5-3.6
			c-1.7-2.9-3.5-5.8-6.5-6.4c-0.4-0.1-0.7-0.1-1.1-0.1c-3.1,0-5.9,2.2-8.4,4.1c-0.8,0.6-1.9,1.5-2.6,1.9c-0.5-1-0.8-3.1-1.1-4.2
			c-0.6-3.1-1.2-6.1-3.4-7.6c-1.8-1.2-4-1.5-6.2-1.5c-1.1,0-2.2,0.1-3.2,0.1c-0.8,0-1.7,0.1-2.5,0.1c0.6-0.9,1.4-1.9,2-2.7
			c1.9-2.5,3.8-4.9,3.8-7.5c0-3.1-2.4-5.7-4.6-8.2c-0.8-0.8-2-2.2-2.4-3c0.3-0.3,3.5-1.5,5.7-1.6"/>
		<path class="st0" d="M15.1,50.1C15.1,50.1,15.1,50.2,15.1,50.1c-0.5,0.7-1.7,0.8-3.6,0.9c-2.9,0.2-7.7,0.5-9.4,5.7
			C1,60.2,3.7,63.3,6.2,66c1,1.1,2.5,2.8,2.8,3.6c-0.3,0.7-1.5,2.3-2.3,3.3C4.3,76,1.4,79.8,3.4,83.6c1.3,2.5,4,3,6.8,3
			c1,0,1.9-0.1,2.9-0.1c0.8,0,1.9-0.1,2.9-0.1c0.8,0,1.6,0,2,0.2c0.3,0.7,0.6,2.3,0.8,3.4c0.7,3.7,1.6,8.4,5.6,9.8
			c0.6,0.2,1.1,0.3,1.7,0.3c2.6,0,4.9-1.9,7.3-3.7c1.1-0.8,2.9-2.3,3.9-2.6c0.6,0.6,1.5,2.1,2,3.1c1.9,3.2,4.1,6.9,8,7.1
			c0.1,0,0.3,0,0.4,0c1.3,0,2.5-0.5,3.5-1.2c1.5-1,2.8-2.6,4.1-4.1c0.9-1,2.4-2.9,3.2-3.3c0.8,0.4,2.5,2.3,3.4,3.4
			c2.3,2.6,4.6,5.4,7.8,5.4c0.1,0,0.2,0,0.3,0c3.8-0.2,6.2-3.7,8.3-6.8c0.7-1,1.8-2.6,2.4-3.2c0.8,0.3,2.4,1.6,3.6,2.5
			c0.2,0.1,0.3,0.3,0.5,0.4c2.4,2,4.8,4.1,7.6,4.1c0.4,0,0.9-0.1,1.3-0.2c4-1,5.6-5.4,6.9-9c0.4-1.2,1-2.9,1.5-3.5
			c0.1,0,0.3,0,0.5,0c1.2,0,3.5,0.6,4.8,0.9c1.9,0.5,3.8,1,5.6,1c1.6,0,3.1-0.4,4.3-1.7c3.2-3.3,1.2-8-0.3-11.7
			c-0.5-1.2-1.3-3.1-1.3-3.8c0.4-0.7,2.1-2.2,3.2-3.1c3-2.5,6.4-5.3,5.6-9.3c-0.5-2.6-2.6-4.2-4.9-5.4"/>
		<circle class="st0" cx="67.2" cy="81.5" r="4.4"/>
		<circle class="st0" cx="107.4" cy="11.4" r="4.4"/>
		<circle class="st0" cx="95.4" cy="34.6" r="4"/>
		<circle class="st0" cx="28.7" cy="24.7" r="4"/>
		<circle class="st0" cx="93.5" cy="76.4" r="3.6"/>
		<circle class="st0" cx="48" cy="82.7" r="3.6"/>
		<circle class="st0" cx="24.7" cy="73.4" r="3.6"/>
		<circle class="st0" cx="49.3" cy="41.1" r="3.6"/>
		<path class="st0" d="M51.3,102.8c1.6,2.6,3.2,5.6,3.9,8.1c0.3,0.9,0.4,1.8,0.4,2.5c0,0-0.9,6.6-5.5,11.4c-0.5,0.6-0.8,1.3-0.6,2.1
			c0.2,0.8,0.7,1.4,1.4,1.7c0.3,0.1,0.6,0.3,0.9,0.4c2.2,1,3.5,4.8,6.3,5.1c2.1,0.2,4.7-3.1,7.6-3.1c2.9,0,5.5,3.3,7.6,3.1
			c2.8-0.3,4.1-4,6.3-5.1c0.2-0.1,0.3-0.1,0.5-0.2c0.8-0.2,1.5-0.9,1.7-1.7c0.2-0.8,0-1.7-0.6-2.4c-4.5-4.8-5.4-11.3-5.4-11.3
			c-0.2-5,6.3-13.9,8.6-16.8"/>
		<path class="st0" d="M75.8,113.4c-4.1,1.7-12.3,0.2-20.6-2.5c-13.7-4.5-20.4-4.6-19.9,2.1c0.5,6.3,14.8,1.6,19.9-2.1"/>
		<path class="st0" d="M107.6,46.3c0,0,6.4-4,16.8-1c0,0-4,17.2-18,15.6"/>
		<path class="st0" d="M103.6,54.9c0,0,13.1-7.3,20.8-9.6"/>
		<path class="st0" d="M39.7,22c0,0-2.8-8.5-13.1-8.3"/>
		<path class="st0" d="M77.4,130.9c0,0-7.5-4-7.7-11.6"/>
		<path class="st0" d="M53.3,130.2c0,0,6.9-0.6,8.3-12.3"/>
		<path class="st0" d="M61,107.7c0,0-1.3-6.4-5.6-9.1"/>
		<path class="st0" d="M69.7,109.4c0,0,0.3-3.3,1.8-5.6"/>
		<path class="st0" d="M39.5,124.1c0,0,12.5-6.1,13.5-11.9"/>
	</g>
</g>
</svg>
