<?xml version="1.0" encoding="utf-8"?>
<!-- Generator: Adobe Illustrator 19.0.1, SVG Export Plug-In . SVG Version: 6.00 Build 0)  -->
<svg version="1.1" id="icons" xmlns="http://www.w3.org/2000/svg" xmlns:xlink="http://www.w3.org/1999/xlink" x="0px" y="0px"
	 viewBox="0 0 50 51" style="enable-background:new 0 0 50 51;" xml:space="preserve">
<style type="text/css">
	.st0{fill:none;stroke:#b5295a;stroke-width:2;stroke-linejoin:round;stroke-miterlimit:10;}
	.st1{fill:none;stroke:#b5295a;stroke-width:2;stroke-miterlimit:10;}
</style>
<g>
	<line class="st0" x1="3.9" y1="42.1" x2="25.9" y2="42.1"/>
	<path class="st1" d="M25.9,31.1v14c0,1.7-1.3,3-3,3h-16c-1.7,0-3-1.3-3-3v-34c0-1.7,1.3-3,3-3h6"/>
	<line class="st0" x1="10.9" y1="13.1" x2="3.9" y2="13.1"/>
	<line class="st0" x1="12.9" y1="45.1" x2="16.9" y2="45.1"/>
	<path class="st1" d="M30.4,3.1c-9.1,0-16.5,5.6-16.5,12.5c0,2.8,1.3,5.5,3.4,7.5c-0.2,2.2-0.8,4.5-1.6,6.7
		c-0.3,0.7,0.3,1.5,1.1,1.3c3.8-0.9,6.4-2.3,8.3-3.8c1.7,0.4,3.5,0.7,5.4,0.7c9.1,0,16.5-5.6,16.5-12.5S39.5,3.1,30.4,3.1z"/>
	<line class="st0" x1="22.9" y1="16.1" x2="37.9" y2="16.1"/>
	<line class="st0" x1="22.9" y1="12.1" x2="37.9" y2="12.1"/>
	<line class="st0" x1="22.9" y1="20.1" x2="30.9" y2="20.1"/>
</g>
</svg>
