<?xml version="1.0" encoding="utf-8"?>
<!-- Generator: Adobe Illustrator 19.0.1, SVG Export Plug-In . SVG Version: 6.00 Build 0)  -->
<svg version="1.1" id="icons" xmlns="http://www.w3.org/2000/svg" xmlns:xlink="http://www.w3.org/1999/xlink" x="0px" y="0px"
	 viewBox="0 0 45.9 51.5" style="enable-background:new 0 0 45.9 51.5;" xml:space="preserve">
<style type="text/css">
	.st0{fill:none;stroke:#b5295a;stroke-width:2;stroke-miterlimit:10;}
</style>
<g>
	<path class="st0" d="M16.9,33.9v5c0,1.6-1.4,2.4-3,2.8l-6,1.6c-2.7,0.7-4.9,3.7-5,5.6v1"/>
	<path class="st0" d="M28.9,33.9v5c0,1.6,1.4,2.4,3,2.8l6,1.6c2.7,0.7,4.9,2.7,5,4.6v2"/>
	<path class="st0" d="M35.9,16.9v-6c0-6.7-1.8-8-9-8h-18v5c0,2.3,1.8,5,6,5c4.2,0,12.1,0,14,0c3,0,4,2.7,4,5c0,0.4,0,0.1,0,1h3v3.9
		c0,0.7-0.3,1.3-0.9,1.7l-2.1,1.4c0,0,0,2.6,0,3c0,3.9-5.1,5.6-6,6s-2.4,1-4,1s-3.1-0.6-4-1s-6-2.1-6-6c0-0.5,0-3,0-3l-2.1-1.4
		c-0.6-0.4-0.9-1-0.9-1.7v-3.9h3c0-0.8,0-1.4,0-2c0-1.8,0.8-3,2-4"/>
	<path class="st0" d="M9.9,10.9c-0.5,0.5-1,1.2-1,3c0,0.7,0,1.7,0,2c0,1.7,1.1,2.7,2,3"/>
	<line class="st0" x1="32.9" y1="18.9" x2="32.9" y2="20.9"/>
	<line class="st0" x1="12.9" y1="18.9" x2="12.9" y2="20.9"/>
</g>
</svg>
