<?xml version="1.0" encoding="utf-8"?>
<!-- Generator: Adobe Illustrator 19.0.1, SVG Export Plug-In . SVG Version: 6.00 Build 0)  -->
<svg version="1.1" id="Capa_1" xmlns="http://www.w3.org/2000/svg" xmlns:xlink="http://www.w3.org/1999/xlink" x="0px" y="0px"
	 viewBox="0 0 55 72.8" style="enable-background:new 0 0 55 72.8;" xml:space="preserve">
<style type="text/css">
	.st0{fill:none;stroke:#e4154f;stroke-width:2;stroke-linecap:round;stroke-linejoin:round;stroke-miterlimit:10;}
	.st1{fill:#e4154f;}
	.st2{fill:none;stroke:#e4154f;stroke-width:2;stroke-linecap:square;stroke-linejoin:round;stroke-miterlimit:10;}
	.st3{fill:none;stroke:#e4154f;stroke-width:1.5;stroke-miterlimit:10;}
	.st4{fill:none;stroke:#e4154f;stroke-width:1.5;stroke-linecap:round;stroke-linejoin:round;stroke-miterlimit:10;}
	.st5{fill:none;stroke:#e4154f;stroke-width:1.5;stroke-linecap:square;stroke-linejoin:round;stroke-miterlimit:10;}
</style>
<g id="gift_list">
	<g>
		<line class="st0" x1="17.3" y1="23.5" x2="35.3" y2="23.5"/>
		<line class="st0" x1="17.3" y1="31.5" x2="29.3" y2="31.5"/>
		<line class="st0" x1="17.3" y1="39.5" x2="21.3" y2="39.5"/>
		<circle class="st1" cx="10.3" cy="23.5" r="2"/>
		<circle class="st1" cx="10.3" cy="31.5" r="2"/>
		<circle class="st1" cx="10.3" cy="39.5" r="2"/>
	</g>
	<g>
		<path class="st2" d="M43.3,29.5V14.9c0-0.3-0.1-0.5-0.3-0.7L30.5,1.8c-0.2-0.2-0.4-0.3-0.7-0.3H3.3c-1.1,0-2,0.9-2,2v54
			c0,1.1,0.9,2,2,2h20"/>
		<polyline class="st0" points="42.3,14.5 30.3,14.5 30.3,8.5 		"/>
	</g>
</g>
<g id="Mother_x27_s_Day_x0A_">
	<g id="rose_2_">
		<g>
			<path class="st3" d="M42.5,40.2c-1.8,0-3.2,0.6-3.2,1.3c0,0.9,1.8,1.7,4,1.7c2.8,0,5-0.9,5-2.1c0-1.4-2.8-2.6-6.2-2.6
				c-4.3,0-6.7,1.5-6.7,3.2"/>
			<path class="st4" d="M39.3,46.3c-1.6-2.1-7.3-3.6-7.3-3.6l2,4.3c0.4,0.9,0.7,2,0.7,3v0.4c0,2,0.9,4,2.4,5.3l0.3,0.2
				c1.3,1.2,3,1.8,4.7,1.8h0.6c1.9,0,3.7-0.7,5-2.1l0,0c1.3-1.3,2.1-3.1,2.1-5v-0.1c0-1.4,0.4-2.8,1.2-3.9l3-4.4l-3.3,1.1
				c-4,1.3-7.4,3.8-10,7"/>
		</g>
		<g>
			<line class="st5" x1="42.4" y1="58.2" x2="42.4" y2="61.8"/>
			<line class="st5" x1="42.4" y1="68.6" x2="42.4" y2="70.7"/>
		</g>
	</g>
	<g id="ribbon_1_">
		<path class="st4" d="M45.5,60.6c0.7-0.4,1.6-0.9,2.6-1.1c2.6-0.6,4-0.1,4.4,0.4c0.4,0.6,0,1.5-2.6,2.1c-2,0.5-4.9,0.2-5.9,0.1"/>
		<path class="st4" d="M39.7,60.6c-0.7-0.4-1.6-0.9-2.6-1.1c-2.6-0.6-4.1-0.1-4.4,0.4c-0.4,0.6,0,1.5,2.6,2.1
			c1.8,0.4,4.3,0.2,5.6,0.1"/>
		<path class="st4" d="M43.5,68.1H42c-0.6,0-1.1-0.5-1-1c0.1-1,0.1-2.4,0-3.8c-0.1-0.4,0.2-0.9,0.7-1c1-0.3,2.5-0.1,2.7,0.6
			c0.4,1.9,0.3,3.5,0.2,4.4C44.4,67.7,44,68.1,43.5,68.1z"/>
		<path class="st4" d="M32.6,60.6l0.3,1.7c0.3,1.6,0.2,3.2-0.3,4.8l-0.7,2.2c0,0,5.5,0.7,9-2.4"/>
		<path class="st4" d="M52.6,60.6l-0.3,1.7c-0.3,1.6-0.2,3.2,0.3,4.8l0.7,2.2c0,0-5.2,0.7-8.7-2.4"/>
	</g>
</g>
</svg>
