<?xml version="1.0" encoding="utf-8"?>
<!-- Generator: Adobe Illustrator 19.0.1, SVG Export Plug-In . SVG Version: 6.00 Build 0)  -->
<svg version="1.1" id="Capa_1" xmlns="http://www.w3.org/2000/svg" xmlns:xlink="http://www.w3.org/1999/xlink" x="0px" y="0px"
	 viewBox="0 0 64.8 64.9" style="enable-background:new 0 0 64.8 64.9;" xml:space="preserve">
<style type="text/css">
	.st0{fill:none;stroke:#cb0056;stroke-width:2;stroke-linecap:square;stroke-linejoin:round;stroke-miterlimit:10;}
	.st1{fill:none;stroke:#cb0056;stroke-width:2;stroke-linecap:round;stroke-linejoin:round;stroke-miterlimit:10;}
	.st2{fill:#cb0056;}
</style>
<g id="pay_online">
	<g id="_x3C_Grupo_x3E__11_">
		<g>
			<path class="st0" d="M6.4,53.5h-1c-2.2,0-4-1.8-4-4v-44c0-2.2,1.8-4,4-4h54c2.2,0,4,1.8,4,4v44c0,2.2-1.8,4-4,4h-1"/>
			<line class="st1" x1="1.4" y1="12.5" x2="63.4" y2="12.5"/>
			<g>
				<circle class="st2" cx="6.9" cy="7" r="1.5"/>
				<circle class="st2" cx="11.9" cy="7" r="1.5"/>
				<circle class="st2" cx="16.9" cy="7" r="1.5"/>
			</g>
		</g>
	</g>
	<g id="_x3C_Grupo_x3E__10_">
		<g>
			<path class="st1" d="M36.4,23.5h9.1c0.5,0.2,0.9,0.6,0.9,1.1v1.8c0,0.5-0.4,0.9-0.9,1.1h-5.1"/>
			<path class="st1" d="M23.4,27.5h-4.1c-0.5-0.2-0.9-0.6-0.9-1.1v-1.8c0-0.5,0.4-0.9,0.9-1.1h7.1"/>
		</g>
		<line class="st1" x1="21.4" y1="33.5" x2="20.4" y2="27.5"/>
		<line class="st1" x1="44.4" y1="27.5" x2="43.4" y2="33.5"/>
		<g>
			<line class="st1" x1="27.4" y1="30.5" x2="27.4" y2="33.5"/>
			<line class="st1" x1="32.4" y1="30.5" x2="32.4" y2="33.5"/>
			<line class="st1" x1="37.4" y1="30.5" x2="37.4" y2="33.5"/>
		</g>
		<line class="st1" x1="32.4" y1="25.5" x2="28.4" y2="17.5"/>
	</g>
	<g>
		<path class="st1" d="M50.4,63.5h-36c-1.1,0-2-0.9-2-2v-22c0-1.1,0.9-2,2-2h36c1.1,0,2,0.9,2,2v22C52.4,62.6,51.5,63.5,50.4,63.5z"
			/>
		<g>
			<path class="st1" d="M25.4,49.5h-6c-0.6,0-1-0.4-1-1v-4c0-0.6,0.4-1,1-1h6c0.6,0,1,0.4,1,1v4C26.4,49.1,25.9,49.5,25.4,49.5z"/>
		</g>
		<g>
			<line class="st1" x1="18.4" y1="57.5" x2="22.4" y2="57.5"/>
			<line class="st1" x1="26.4" y1="57.5" x2="30.4" y2="57.5"/>
			<line class="st1" x1="34.4" y1="57.5" x2="38.4" y2="57.5"/>
			<line class="st1" x1="42.4" y1="57.5" x2="46.4" y2="57.5"/>
		</g>
	</g>
</g>
</svg>
