<?xml version="1.0" encoding="utf-8"?>
<!-- Generator: Adobe Illustrator 19.0.1, SVG Export Plug-In . SVG Version: 6.00 Build 0)  -->
<svg version="1.1" id="Layer_3" xmlns="http://www.w3.org/2000/svg" xmlns:xlink="http://www.w3.org/1999/xlink" x="0px" y="0px"
	 viewBox="0 0 22.2 22.3" style="enable-background:new 0 0 22.2 22.3;" xml:space="preserve">
<style type="text/css">
	.st0{fill:#fff;}
</style>
<g>
	<path class="st0" d="M17.8,22.3c-4.3,0-8.8-2-12.3-5.5C1.9,13.2-0.1,8.6,0,4.1L0,4l0.1-0.1C0.4,3.5,0.7,3.1,1,2.8
		c1.2-1.2,2.5-2.1,4.1-2.6c0.1-0.1,0.3-0.1,0.5-0.1c0.5,0,1.4,0.3,1.6,0.8c0.5,1.5,1.2,3.5,1.7,5.3c0.1,0.4,0,1.4-0.5,1.7L6.6,9.1
		C6.5,9.1,6.4,9.3,6.4,9.4c-0.1,0.3,0.1,0.7,0.3,1c0.7,1,1.5,1.9,2.4,2.8c0.9,0.9,1.9,1.7,2.8,2.4c0.5,0.4,1.1,0.4,1.3,0.1l1.1-1.8
		c0.3-0.5,1.1-0.5,1.4-0.5c0.1,0,0.2,0,0.3,0c2.3,0.5,3.7,1,5.4,1.7c0.5,0.2,0.9,1.4,0.7,2c-0.6,1.5-1.5,2.9-2.6,4.1
		c-0.3,0.3-0.7,0.6-1.1,0.9l-0.1,0.1L17.8,22.3L17.8,22.3z M1,4.3C1,8.4,2.8,12.7,6.2,16l0.1,0.1c3.3,3.3,7.5,5.2,11.6,5.2l0.1,0
		c0.3-0.2,0.6-0.5,0.8-0.7c1.1-1.1,1.9-2.3,2.4-3.7c0.1-0.2-0.1-0.7-0.2-0.8c-1.6-0.7-2.9-1.1-5.1-1.6c-0.3,0-0.6,0.1-0.7,0.1
		l-1.1,1.7c-0.5,0.8-1.8,0.9-2.8,0.2c-1-0.7-2-1.6-2.9-2.5C7.5,13,6.6,12,5.9,11c-0.4-0.6-0.6-1.2-0.5-1.8c0.1-0.4,0.3-0.8,0.6-1
		l1.8-1.1c0-0.1,0.1-0.5,0.1-0.6C7.4,4.6,6.8,2.7,6.2,1.2c0,0-0.4-0.1-0.7-0.1c-0.1,0-0.1,0-0.1,0C4.1,1.6,2.8,2.4,1.7,3.5
		C1.5,3.8,1.2,4,1,4.3L1,4.3z"/>
</g>
</svg>
