<?xml version="1.0" encoding="utf-8"?>
<!-- Generator: Adobe Illustrator 19.0.1, SVG Export Plug-In . SVG Version: 6.00 Build 0)  -->
<svg version="1.1" id="Capa_1" xmlns="http://www.w3.org/2000/svg" xmlns:xlink="http://www.w3.org/1999/xlink" x="0px" y="0px"
	 viewBox="0 0 50 50" style="enable-background:new 0 0 50 50;" xml:space="preserve">
<style type="text/css">
	.st0{fill:#df3961;}
</style>
<g id="faq">
	<g>
		<path class="st0" d="M25,32.2c-0.4,0-0.8-0.3-0.8-0.8v-3.9c0-0.4,0.4-0.8,0.8-0.8c3.4,0,6.3-2.8,6.3-6.3s-2.8-6.2-6.3-6.2
			c-3.4,0-6.3,2.8-6.3,6.2c0,0.4-0.3,0.8-0.8,0.8c-0.4,0-0.8-0.3-0.8-0.8c0-4.3,3.5-7.8,7.8-7.8c4.3,0,7.8,3.5,7.8,7.8
			c0,4-3.1,7.4-7,7.8v3.2C25.8,31.9,25.4,32.2,25,32.2z"/>
		<circle class="st0" cx="25" cy="35.4" r="1.2"/>
	</g>
	<path class="st0" d="M49.2,50c-0.1,0-0.1,0-0.2,0l-11.8-3.2C33.5,48.9,29.3,50,25,50C11.2,50,0,38.8,0,25C0,11.2,11.2,0,25,0
		c13.8,0,25,11.2,25,25c0,4.3-1.1,8.5-3.2,12.2L50,49c0.1,0.3,0,0.6-0.2,0.8C49.6,49.9,49.4,50,49.2,50z M25,1.6
		C12.1,1.6,1.6,12.1,1.6,25c0,12.9,10.5,23.4,23.4,23.4c4.1,0,8.1-1.1,11.7-3.1c0.2-0.1,0.4-0.1,0.6-0.1l10.8,2.9l-2.9-10.8
		c-0.1-0.2,0-0.4,0.1-0.6c2.1-3.6,3.1-7.6,3.1-11.7C48.4,12.1,37.9,1.6,25,1.6z"/>
</g>
</svg>
