<?xml version="1.0" encoding="utf-8"?>
<!-- Generator: Adobe Illustrator 19.0.1, SVG Export Plug-In . SVG Version: 6.00 Build 0)  -->
<svg version="1.1" id="icons" xmlns="http://www.w3.org/2000/svg" xmlns:xlink="http://www.w3.org/1999/xlink" x="0px" y="0px"
	 viewBox="0 0 64 64" style="enable-background:new 0 0 64 64;" xml:space="preserve">
<style type="text/css">
	.st0{fill:#d62759;}
</style>
<g>
	<g>
		<rect x="47" y="58" class="st0" width="16" height="2"/>
	</g>
	<g>
		<path class="st0" d="M59,64c-0.3,0-0.5-0.1-0.7-0.3c-0.4-0.4-0.4-1,0-1.4l3.3-3.3l-3.3-3.3c-0.4-0.4-0.4-1,0-1.4
			c0.4-0.4,1-0.4,1.4,0l4,4c0.4,0.4,0.4,1,0,1.4l-4,4C59.5,63.9,59.3,64,59,64z"/>
	</g>
	<g>
		<path class="st0" d="M36,10c-0.3,0-0.5-0.1-0.7-0.3l-4-4c-0.4-0.4-0.4-1,0-1.4l4-4c0.4-0.4,1-0.4,1.4,0c0.4,0.4,0.4,1,0,1.4
			L33.4,5l3.3,3.3c0.4,0.4,0.4,1,0,1.4C36.5,9.9,36.3,10,36,10z"/>
	</g>
	<g>
		<path class="st0" d="M32,60H0v-2h32c14.3,0,26-11.7,26-26S46.3,6,32,6V4c15.4,0,28,12.6,28,28C60,47.4,47.4,60,32,60z"/>
	</g>
	<g>
		<path class="st0" d="M17.5,55.9C9,50.8,4,41.9,4,32C4,18.5,13.6,6.9,26.9,4.5l0.4,2C14.9,8.7,6,19.5,6,32
			c0,9.2,4.7,17.5,12.5,22.2L17.5,55.9z"/>
	</g>
	<g>
		<path class="st0" d="M32,50c-9.9,0-18-8.1-18-18c0-7.4,4.7-14.2,11.6-16.8l0.7,1.9C20.2,19.4,16,25.4,16,32c0,8.8,7.2,16,16,16
			c8.8,0,16-7.2,16-16c0-6.6-4.2-12.6-10.4-15l0.7-1.9C45.3,17.8,50,24.6,50,32C50,41.9,41.9,50,32,50z"/>
	</g>
	<g>
		<rect x="29" y="14" class="st0" width="6" height="2"/>
	</g>
	<g>
		<rect x="31" y="15" class="st0" width="2" height="4"/>
	</g>
	<g>
		<rect x="16.4" y="17.5" transform="matrix(0.7071 0.7071 -0.7071 0.7071 18.5 -7.6629)" class="st0" width="4.2" height="2"/>
	</g>
	<g>
		<rect x="44.5" y="16.4" transform="matrix(0.7071 0.7071 -0.7071 0.7071 26.4081 -26.7548)" class="st0" width="2" height="4.2"/>
	</g>
	<g>
		<path class="st0" d="M32,46c-7.7,0-14-6.3-14-14c0-7.7,6.3-14,14-14c7.7,0,14,6.3,14,14C46,39.7,39.7,46,32,46z M32,20
			c-6.6,0-12,5.4-12,12s5.4,12,12,12c6.6,0,12-5.4,12-12S38.6,20,32,20z"/>
	</g>
	<g>
		<rect x="35.5" y="24" transform="matrix(0.7071 0.7071 -0.7071 0.7071 30.1361 -17.7548)" class="st0" width="2" height="7.1"/>
	</g>
	<g>
		<rect x="31" y="22" class="st0" width="2" height="2"/>
	</g>
	<g>
		<rect x="22" y="31" class="st0" width="2" height="2"/>
	</g>
	<g>
		<rect x="31" y="40" class="st0" width="2" height="2"/>
	</g>
	<g>
		<rect x="40" y="31" class="st0" width="2" height="2"/>
	</g>
	<g>
		<path class="st0" d="M32,36c-2.2,0-4-1.8-4-4c0-2.2,1.8-4,4-4c2.2,0,4,1.8,4,4C36,34.2,34.2,36,32,36z M32,30c-1.1,0-2,0.9-2,2
			c0,1.1,0.9,2,2,2c1.1,0,2-0.9,2-2C34,30.9,33.1,30,32,30z"/>
	</g>
</g>
</svg>
