<?xml version="1.0" encoding="utf-8"?>
<!-- Generator: Adobe Illustrator 19.0.1, SVG Export Plug-In . SVG Version: 6.00 Build 0)  -->
<svg version="1.1" id="Capa_1" xmlns="http://www.w3.org/2000/svg" xmlns:xlink="http://www.w3.org/1999/xlink" x="0px" y="0px"
	 viewBox="0 0 65.5 65.8" style="enable-background:new 0 0 65.5 65.8;" xml:space="preserve">
<style type="text/css">
	.st0{fill:none;stroke:#b5295a;stroke-width:2;stroke-linecap:round;stroke-linejoin:round;stroke-miterlimit:10;}
</style>
<g id="giftcard_2_">
	<line class="st0" x1="54.8" y1="21.3" x2="59.5" y2="21.3"/>
	<line class="st0" x1="55.8" y1="26.3" x2="63.7" y2="26.3"/>
	<line class="st0" x1="24.8" y1="21.3" x2="19.8" y2="21.3"/>
	<line class="st0" x1="23.8" y1="26.3" x2="14.9" y2="26.3"/>
	<path class="st0" d="M36.2,26.6c0,0,1.2,0.9,3.5,0.9c2.4,0,3.5-0.9,3.5-0.9"/>
	<path class="st0" d="M36.2,26.6c0,0-0.9-0.9-0.9-2.7c0-1.8,0.9-2.7,0.9-2.7s1.2-0.9,3.5-0.9c2.4,0,3.5,0.9,3.5,0.9s0.9,0.9,0.9,2.7
		c0,1.8-0.9,2.7-0.9,2.7"/>
	<path class="st0" d="M36.2,21.3l-2.4-1.6c-2-1.1-3.8-1.1-4.7,1.6l-0.9,4.4c0,1,0.8,1.8,1.8,1.8"/>
	<path class="st0" d="M43.3,21.3l2.4-1.5c2-1.1,3.8-1.1,4.7,1.5l0.9,4.4c0,1-0.8,1.8-1.8,1.8"/>
	<polyline class="st0" points="43.3,26.6 34,35.8 34.6,31.4 31.5,30.8 35.9,26.4 	"/>
	<polyline class="st0" points="42.1,32.7 45.3,35.8 44.6,31.4 47.8,30.8 43.5,26.5 	"/>
	<line class="st0" x1="20.9" y1="60.2" x2="42.8" y2="38.3"/>
	<line class="st0" x1="15.2" y1="54.6" x2="31.5" y2="38.3"/>
	<path class="st0" d="M63.1,24.8c0.9,0.9,0.9,2.3,0,3.2L27.4,63.7c-0.9,0.9-2.3,0.9-3.2,0L2.4,41.8c-0.9-0.9-0.9-2.3,0-3.2L38.1,3
		c0.9-0.9,2.3-0.9,3.2,0L63.1,24.8z"/>
</g>
</svg>
