<?xml version="1.0" encoding="utf-8"?>
<!-- Generator: Adobe Illustrator 19.0.1, SVG Export Plug-In . SVG Version: 6.00 Build 0)  -->
<svg version="1.1" id="icons" xmlns="http://www.w3.org/2000/svg" xmlns:xlink="http://www.w3.org/1999/xlink" x="0px" y="0px"
	 viewBox="0 0 63 70" style="enable-background:new 0 0 63 70;" xml:space="preserve">
<style type="text/css">
	.st0{fill:#fff;}
</style>
<g>
	<g>
		<path class="st0" d="M29,64C13.6,64,1,51.4,1,36S13.6,8,29,8c15.4,0,28,12.6,28,28S44.4,64,29,64z M29,10C14.7,10,3,21.7,3,36
			s11.7,26,26,26c14.3,0,26-11.7,26-26S43.3,10,29,10z"/>
	</g>
	<g>
		<path class="st0" d="M29,10c-2.8,0-5-2.2-5-5s2.2-5,5-5c2.8,0,5,2.2,5,5S31.8,10,29,10z M29,2c-1.7,0-3,1.3-3,3s1.3,3,3,3
			c1.7,0,3-1.3,3-3S30.7,2,29,2z"/>
	</g>
	<g>
		<rect x="28" y="12" class="st0" width="2" height="2"/>
	</g>
	<g>
		<rect x="20" y="35.5" transform="matrix(0.7071 0.7071 -0.7071 0.7071 37.2635 -1.962)" class="st0" width="2" height="17"/>
	</g>
	<g>
		<rect x="6.4" y="14.5" transform="matrix(0.7071 0.7071 -0.7071 0.7071 13.4511 -1.4709)" class="st0" width="4.2" height="2"/>
	</g>
	<g>
		<rect x="5" y="35" class="st0" width="2" height="2"/>
	</g>
	<g>
		<rect x="51" y="35" class="st0" width="2" height="2"/>
	</g>
	<g>
		<rect x="28" y="58" class="st0" width="2" height="2"/>
	</g>
	<g>
		<path class="st0" d="M29,40c-2.2,0-4-1.8-4-4s1.8-4,4-4c2.2,0,4,1.8,4,4S31.2,40,29,40z M29,34c-1.1,0-2,0.9-2,2s0.9,2,2,2
			c1.1,0,2-0.9,2-2S30.1,34,29,34z"/>
	</g>
	<g>
		<path class="st0" d="M4,18c-0.3,0-0.5-0.1-0.7-0.3l-3-3c-0.4-0.4-0.4-1,0-1.4l6-6c0.4-0.4,1-0.4,1.4,0l3,3c0.4,0.4,0.4,1,0,1.4
			l-6,6C4.5,17.9,4.3,18,4,18z M2.4,14L4,15.6L8.6,11L7,9.4L2.4,14z"/>
	</g>
	<g>
		<rect x="48.5" y="13.4" transform="matrix(0.7071 0.7071 -0.7071 0.7071 25.461 -30.4632)" class="st0" width="2" height="4.2"/>
	</g>
	<g>
		<path class="st0" d="M54,18c-0.3,0-0.5-0.1-0.7-0.3l-6-6c-0.4-0.4-0.4-1,0-1.4l3-3c0.4-0.4,1-0.4,1.4,0l6,6c0.4,0.4,0.4,1,0,1.4
			l-3,3C54.5,17.9,54.3,18,54,18z M49.4,11l4.6,4.6l1.6-1.6L51,9.4L49.4,11z"/>
	</g>
	<g>
		<path class="st0" d="M29,56c-5.3,0-10.4-2.1-14.1-5.9l1.4-1.4C19.7,52.1,24.2,54,29,54c9.9,0,18-8.1,18-18s-8.1-18-18-18v-2
			c11,0,20,9,20,20S40,56,29,56z"/>
	</g>
	<g>
		<path class="st0" d="M29,50c-3.7,0-7.3-1.5-9.9-4.1l1.4-1.4c2.3,2.3,5.3,3.5,8.5,3.5c6.6,0,12-5.4,12-12s-5.4-12-12-12v-2
			c7.7,0,14,6.3,14,14S36.7,50,29,50z"/>
	</g>
	<g>
		<rect x="9" y="35" class="st0" width="2" height="2"/>
	</g>
	<g>
		<rect x="13" y="35" class="st0" width="2" height="2"/>
	</g>
	<g>
		<rect x="17" y="35" class="st0" width="2" height="2"/>
	</g>
	<g>
		<rect x="21" y="35" class="st0" width="2" height="2"/>
	</g>
	<g>
		<rect x="28" y="5" class="st0" width="2" height="4"/>
	</g>
</g>
</svg>
